# xmcd
#
# Track frame offsets:
# 150
# 13912
# 27357
# 40755
# 54413
# 69065
# 82085
# 94883
# 109858
# 123697
# 138814
# 153391
# 168846
# 181285
# 197217
# 211530
#
# Disc length: 3138 seconds
#
#
# Revision: 0
# Processed by: cddbd v1.5.2PL0 Copyright (c) Steve Scherf et al.
# Submitted via: FreeRIP 2.943 
#
DISCID=d10c4010
DTITLE=Theme and Thiago - Novos Tempos - Ao vivo
DYEAR=2014
DGENRE=Sertanejo
TTITLE0=Vai dar sim
TTITLE1=Coração apertado
TTITLE2=Cd's e livros
TTITLE3=O que acontece na balada (ft. Fernando and Sorocaba)
TTITLE4=Inseguros
TTITLE5=Solteira
TTITLE6=Cafajeste
TTITLE7=29 de agosto
TTITLE8=Ai ai ai ui ui
TTITLE9=Cê gama (ft. Lucas Lucco)
TTITLE10=Eu te esperarei (Yo te esperaré)
TTITLE11=Nosso jardim
TTITLE12=Anjo bom e anjo mau
TTITLE13=Aeroporto
TTITLE14=Partiu balada
TTITLE15=Novos tempos
EXTD=
EXTT0=
EXTT1=
EXTT2=
EXTT3=
EXTT4=
EXTT5=
EXTT6=
EXTT7=
EXTT8=
EXTT9=
EXTT10=
EXTT11=
EXTT12=
EXTT13=
EXTT14=
EXTT15=
PLAYORDER=
